<?xml version="1.0" standalone="no"?>
<!DOCTYPE svg PUBLIC "-//W3C//DTD SVG 20010904//EN"
 "http://www.w3.org/TR/2001/REC-SVG-20010904/DTD/svg10.dtd">
<svg version="1.0" xmlns="http://www.w3.org/2000/svg"
 width="2992.000000pt" height="1721.000000pt" viewBox="0 0 2992.000000 1721.000000"
 preserveAspectRatio="xMidYMid meet">

<g transform="translate(0.000000,1721.000000) scale(0.100000,-0.100000)"
fill="#000000" stroke="none">
<path d="M3440 15163 c-57 -11 -161 -14 -437 -13 -350 1 -366 0 -485 -25 -68
-14 -161 -39 -208 -56 -47 -17 -103 -37 -125 -44 -104 -34 -311 -145 -480
-257 -160 -107 -209 -148 -489 -413 -137 -130 -231 -244 -367 -445 -35 -52
-74 -108 -85 -125 -75 -110 -165 -257 -200 -330 -28 -56 -84 -166 -97 -190 -6
-11 -25 -60 -43 -110 -18 -49 -47 -126 -64 -170 -34 -87 -90 -253 -90 -267 0
-5 -8 -28 -19 -51 -10 -23 -24 -73 -31 -112 -6 -38 -18 -99 -27 -135 -8 -36
-21 -119 -29 -185 -8 -66 -19 -147 -26 -180 -16 -87 -16 -980 0 -1060 7 -33
19 -132 27 -220 14 -155 27 -216 109 -515 126 -461 344 -929 636 -1365 363
-542 764 -957 1256 -1302 209 -146 357 -229 599 -337 33 -15 74 -34 90 -43 48
-25 191 -68 305 -92 58 -13 150 -33 205 -46 55 -13 129 -27 165 -30 36 -4 96
-16 135 -26 122 -33 428 -23 685 22 182 31 332 69 375 94 39 22 171 69 325
114 41 13 95 29 120 37 343 110 418 142 528 222 91 66 130 88 172 97 19 4 85
32 147 61 119 56 216 96 273 112 19 6 116 48 215 95 218 101 432 190 444 182
5 -3 157 -9 338 -15 180 -5 351 -14 378 -20 28 -6 95 -20 150 -31 166 -34 206
-49 330 -124 22 -13 51 -30 65 -36 41 -21 142 -82 184 -111 21 -16 44 -28 51
-28 7 0 24 -10 39 -21 15 -12 106 -61 203 -110 96 -48 180 -92 186 -98 7 -5
66 -24 132 -41 241 -65 422 -48 574 54 86 58 137 119 186 221 72 149 71 278
-2 384 -43 63 -157 154 -253 202 -36 19 -127 68 -203 111 -75 43 -142 78 -149
78 -6 0 -35 16 -64 36 -50 34 -74 45 -212 94 -29 11 -71 33 -92 50 -46 36
-179 99 -350 164 -69 27 -134 52 -145 56 -25 10 -133 46 -200 66 -53 16 -347
39 -500 38 -212 0 -447 -22 -575 -53 -309 -74 -542 -166 -1268 -500 -604 -279
-807 -363 -1132 -469 -411 -134 -469 -144 -827 -145 -250 0 -461 21 -527 52
-22 11 -76 34 -119 50 -221 88 -414 211 -673 431 -227 194 -581 576 -703 760
-137 206 -256 408 -305 520 -9 19 -19 42 -24 50 -22 39 -42 83 -39 86 2 2 20
-1 40 -7 25 -7 455 -9 1280 -6 1290 3 1268 3 1737 47 557 53 1420 277 1860
482 47 22 95 44 108 49 12 5 46 24 75 42 28 18 60 36 70 40 47 18 369 244 452
318 110 98 267 242 310 284 78 79 173 210 185 258 14 56 40 115 57 128 11 10
13 -26 11 -226 l-3 -238 -65 -27 c-125 -51 -207 -120 -260 -220 -25 -46 -40
-126 -50 -254 -15 -204 17 -317 108 -380 49 -33 75 -42 190 -65 88 -18 144
-20 607 -22 447 -1 520 1 590 16 101 21 154 58 205 142 60 99 70 160 60 343
-4 85 -13 169 -18 187 -13 41 -78 127 -133 178 -24 22 -86 69 -136 104 -51 35
-93 66 -93 70 0 3 -2 243 -5 534 l-5 527 175 0 c173 0 175 0 180 -22 3 -13 16
-110 30 -217 33 -259 51 -359 81 -449 13 -41 24 -80 24 -87 0 -14 89 -155 98
-155 4 0 22 -13 41 -29 l34 -28 -22 -29 c-25 -34 -51 -122 -51 -173 0 -43 38
-204 60 -256 10 -22 41 -73 69 -113 51 -72 154 -156 336 -277 33 -22 78 -54
100 -71 22 -17 53 -38 70 -45 29 -14 56 -56 122 -189 l27 -55 -2 -420 c-1
-231 -7 -539 -12 -685 -6 -146 -15 -380 -20 -520 -11 -306 -25 -484 -45 -565
-21 -84 -64 -224 -80 -260 -7 -16 -23 -61 -35 -99 -27 -90 -78 -195 -107 -222
-13 -12 -53 -57 -89 -100 -69 -83 -118 -128 -224 -202 -36 -25 -92 -67 -125
-92 -59 -46 -119 -73 -203 -90 -23 -5 -84 -21 -135 -34 -163 -44 -433 -76
-646 -76 -249 -1 -321 -69 -396 -371 -34 -133 -37 -160 -43 -351 -7 -213 -4
-264 25 -383 18 -78 48 -130 94 -164 34 -25 133 -61 249 -91 69 -18 81 -18
129 -5 51 13 91 36 158 90 18 15 58 32 95 41 35 7 77 20 93 28 76 36 146 65
173 71 17 3 36 13 43 21 6 8 16 14 21 14 5 0 28 9 51 19 23 11 71 25 107 31
36 7 139 30 230 51 346 79 560 108 861 116 289 8 368 -1 1018 -112 l551 -94
64 18 c65 18 102 41 136 84 26 32 35 59 56 154 14 66 17 147 19 513 1 239 3
460 3 490 1 80 -32 221 -64 269 -57 87 -173 127 -454 156 -85 9 -165 18 -177
21 l-23 4 0 1278 c-1 702 -5 1338 -10 1412 -5 74 -7 136 -5 138 6 6 91 -64
155 -127 57 -56 586 -514 629 -543 12 -9 106 -90 208 -180 222 -195 238 -206
315 -224 54 -13 68 -12 139 4 99 24 147 57 198 135 49 76 69 128 132 328 50
162 157 425 348 852 61 137 116 267 121 290 20 77 43 132 71 167 28 36 58 111
85 210 8 30 21 69 28 85 23 49 53 133 95 257 22 64 60 158 86 210 l47 93 -7
-70 c-4 -38 -9 -1438 -11 -3109 -3 -2686 -5 -3050 -19 -3129 -18 -103 -51
-209 -99 -312 -36 -78 -153 -260 -184 -286 -10 -9 -41 -19 -68 -23 -141 -19
-207 -51 -256 -123 -55 -79 -98 -241 -105 -393 -5 -90 -2 -120 21 -213 46
-191 106 -268 231 -296 102 -23 1470 -65 1655 -50 303 23 733 139 960 259 113
59 159 85 195 109 22 14 69 41 105 59 36 19 92 53 125 77 33 24 85 61 115 82
66 45 195 172 480 473 118 124 347 360 510 525 162 165 308 319 323 342 44 64
55 128 61 360 7 251 -2 359 -48 542 -41 161 -84 269 -151 371 -83 126 -321
358 -425 414 -19 10 -58 36 -86 56 -80 60 -145 88 -282 123 -119 30 -138 32
-302 32 -135 0 -194 -4 -256 -19 -134 -30 -212 -104 -240 -225 -12 -53 -12
-66 5 -134 24 -90 48 -141 92 -188 17 -19 38 -53 46 -76 8 -23 21 -47 29 -54
8 -6 14 -17 14 -24 0 -7 15 -32 34 -56 18 -25 50 -78 71 -119 21 -41 50 -91
65 -110 67 -87 97 -181 109 -345 5 -66 7 -122 6 -125 -2 -3 -6 -61 -9 -130
-11 -220 -51 -328 -186 -495 -22 -27 -65 -84 -96 -125 -31 -41 -78 -97 -104
-125 -27 -27 -61 -71 -77 -96 -33 -53 -87 -103 -123 -114 -14 -4 -59 -27 -100
-51 -130 -75 -192 -96 -291 -96 -107 0 -168 24 -246 98 l-52 49 -11 184 c-13
235 -13 491 1 1006 8 327 7 551 -5 1105 -9 382 -16 880 -16 1105 0 375 -2 417
-20 493 -11 46 -20 111 -20 145 0 34 -5 103 -10 152 -19 176 -24 375 -10 375
6 0 40 -7 73 -16 43 -11 109 -16 217 -16 292 -1 414 57 456 216 14 50 35 237
55 471 5 65 11 120 12 121 1 1 26 4 55 7 l52 6 0 -32 c0 -63 -20 -324 -30
-392 -18 -124 22 -238 104 -293 79 -53 340 -93 636 -96 102 -1 415 -10 695
-19 l510 -17 95 26 c52 14 111 34 132 45 29 15 43 17 63 9 14 -5 70 -21 123
-34 92 -23 117 -25 471 -29 413 -5 447 -1 528 54 l42 30 38 -25 c77 -48 162
-60 453 -59 211 1 279 4 335 18 85 20 208 68 255 99 l35 23 46 -39 c53 -44
133 -69 279 -87 125 -16 702 -14 765 2 41 11 61 11 114 0 50 -10 91 -11 180
-4 64 5 163 10 220 11 199 1 434 44 503 91 37 24 45 26 58 14 67 -61 370 -118
610 -115 58 0 134 0 170 -1 102 -3 247 -2 485 3 297 7 390 32 459 123 l25 33
133 -131 c150 -146 197 -184 324 -256 113 -65 255 -121 414 -162 120 -32 133
-33 354 -37 406 -7 567 20 906 152 19 8 64 25 100 39 100 38 222 87 255 102
55 26 319 122 430 158 109 35 178 50 285 61 55 6 55 6 79 -30 38 -55 97 -98
191 -139 47 -21 92 -43 100 -50 8 -7 67 -38 130 -69 63 -31 147 -74 185 -96
39 -22 81 -45 95 -50 14 -6 33 -15 44 -21 59 -34 325 -108 391 -109 64 0 141
25 192 63 27 19 116 104 199 189 236 240 351 431 416 688 35 143 46 275 28
373 -41 233 -75 322 -193 495 -117 171 -358 379 -624 538 -168 100 -436 229
-593 284 -19 6 -57 21 -85 32 -106 43 -406 141 -775 253 -212 64 -511 157
-665 207 -154 50 -329 106 -390 125 -60 19 -130 41 -155 49 -143 46 -214 68
-290 90 -47 14 -134 40 -195 59 -341 104 -386 121 -436 157 -14 11 -57 27 -95
37 -66 17 -73 17 -139 1 -72 -17 -122 -42 -187 -92 -67 -52 -89 -108 -108
-281 -16 -154 19 -249 123 -325 77 -57 143 -88 223 -105 39 -8 79 -19 90 -25
11 -6 51 -17 89 -26 129 -29 256 -65 303 -86 26 -12 112 -37 192 -56 203 -48
263 -70 339 -122 85 -58 242 -136 306 -151 28 -7 82 -24 120 -37 39 -14 147
-52 240 -86 94 -33 242 -85 330 -114 88 -30 171 -60 185 -68 14 -7 72 -30 130
-49 58 -20 130 -46 160 -57 30 -12 81 -30 113 -40 32 -10 64 -23 70 -27 7 -5
59 -24 117 -43 58 -18 114 -37 125 -41 11 -5 65 -24 120 -43 55 -19 132 -46
170 -61 39 -15 99 -35 135 -45 100 -27 107 -32 150 -89 96 -127 243 -392 276
-497 l17 -51 -32 -43 c-17 -24 -46 -53 -64 -66 l-34 -23 -86 30 c-206 69 -289
137 -434 357 -109 164 -137 188 -259 220 -127 34 -244 31 -429 -14 -82 -20
-164 -42 -182 -49 -17 -8 -71 -23 -120 -35 -86 -20 -111 -27 -363 -108 -69
-22 -141 -43 -160 -46 -19 -3 -84 -22 -145 -41 -60 -19 -179 -50 -264 -70
l-154 -35 -378 0 -379 0 -97 31 c-171 54 -236 92 -344 199 -53 52 -105 111
-114 130 -10 19 -33 60 -51 90 -56 92 -84 229 -84 415 l0 154 45 31 c91 63
131 161 142 351 4 74 2 114 -12 170 -41 166 -108 210 -399 263 -350 64 -508
72 -1521 71 l-860 0 -105 -28 c-57 -15 -124 -39 -149 -53 l-44 -24 -38 26
c-21 14 -80 37 -131 51 -88 24 -112 26 -423 33 -181 4 -339 10 -351 14 -34 12
-189 -30 -240 -64 -24 -17 -44 -27 -44 -22 0 10 -89 72 -135 94 -39 19 -115
38 -190 48 -44 5 -84 2 -150 -12 -49 -10 -148 -23 -220 -28 -202 -14 -324 -51
-441 -131 l-41 -28 -33 24 c-41 30 -93 48 -235 80 -107 24 -121 25 -495 25
-377 0 -387 -1 -489 -25 -211 -51 -290 -112 -325 -250 -14 -56 -14 -65 3 -133
34 -129 130 -233 244 -262 20 -6 55 -15 77 -20 l40 -11 -2 -176 -3 -177 -40
-11 c-59 -15 -111 -51 -155 -107 -122 -154 -75 -405 95 -507 l60 -36 -60 -1
c-36 0 -90 -11 -138 -27 -93 -32 -335 -82 -345 -72 -12 12 -7 1000 5 1105 10
76 19 108 47 160 81 152 86 327 12 424 -62 82 -211 136 -374 136 -44 0 -112 7
-151 16 -137 31 -223 -6 -332 -142 -85 -106 -96 -125 -113 -190 -14 -53 -14
-65 0 -118 19 -73 78 -162 132 -199 l40 -28 7 -297 c4 -163 10 -409 14 -547 8
-257 8 -264 -31 -265 -37 0 -73 197 -108 595 -10 127 -27 255 -36 285 -9 30
-22 105 -30 165 -7 61 -18 131 -25 157 -7 29 -8 72 -3 115 9 81 9 84 -22 192
-40 137 -94 197 -207 227 -77 20 -988 20 -1066 0 -65 -18 -124 -58 -152 -103
-12 -19 -22 -33 -24 -31 -1 2 -5 46 -8 99 l-5 95 31 16 c18 9 64 28 102 43 39
15 81 34 95 43 14 9 65 35 113 59 109 53 147 81 191 143 55 77 84 142 112 252
25 95 27 124 31 368 4 217 2 276 -10 323 -21 78 -72 162 -124 202 -73 56 -121
60 -558 45 -363 -12 -746 -11 -1318 6 -245 8 -303 0 -377 -47 -66 -42 -119
-139 -164 -299 -7 -25 -29 -77 -49 -116 -21 -39 -37 -75 -37 -80 0 -5 -5 -26
-11 -48 l-11 -38 -86 6 c-130 10 -938 35 -1167 37 -115 1 -223 -3 -254 -10
-69 -14 -176 -14 -203 0 -20 11 -20 17 -14 117 6 85 13 119 36 171 15 36 31
78 35 92 4 15 19 38 33 51 81 74 169 96 542 133 80 8 164 19 187 25 23 5 59
10 80 10 58 1 146 25 194 54 132 78 193 152 222 269 14 53 14 71 3 117 -16 69
-24 84 -104 195 -146 203 -211 249 -642 454 -30 14 -65 34 -78 43 -30 22 -127
51 -292 87 -227 50 -486 82 -937 115 -202 15 -221 14 -343 -28 -66 -22 -157
-36 -236 -36 -68 0 -188 -25 -231 -48 -12 -7 -40 -12 -63 -12 -22 0 -73 -6
-113 -14 -40 -8 -92 -18 -117 -21 -25 -4 -81 -16 -125 -27 -46 -12 -120 -21
-175 -23 -109 -3 -173 -16 -224 -46 -23 -13 -65 -23 -123 -29 -48 -5 -104 -14
-123 -20 -19 -6 -80 -17 -135 -25 -55 -7 -138 -21 -185 -30 -168 -32 -196 -37
-280 -45 -47 -5 -140 -25 -206 -44 -291 -84 -394 -156 -424 -296 -22 -105 12
-209 88 -268 78 -60 178 -115 232 -128 59 -14 68 -12 250 36 19 5 60 10 90 10
30 0 87 7 125 16 81 18 222 34 347 39 48 3 131 16 185 30 53 14 113 25 133 25
19 0 51 5 70 10 19 6 87 17 150 25 63 9 156 22 205 31 94 17 181 28 325 44
130 14 431 58 468 69 18 5 76 15 130 21 53 6 122 18 152 26 36 10 125 17 260
20 l205 5 -105 -39 c-131 -48 -287 -147 -375 -236 -17 -17 -47 -44 -68 -61
-50 -40 -115 -141 -133 -207 -10 -38 -14 -114 -14 -268 0 -212 1 -217 34 -346
39 -150 77 -239 133 -315 92 -123 241 -231 415 -300 63 -25 247 -71 378 -95
104 -20 340 -21 1197 -8 l412 7 -18 -39 c-50 -103 -71 -160 -81 -217 -19 -104
-30 -151 -47 -182 -44 -85 -64 -131 -107 -255 -27 -74 -59 -158 -72 -186 -13
-28 -24 -57 -24 -65 0 -14 -30 -95 -60 -164 -10 -22 -21 -51 -25 -65 -3 -14
-13 -38 -20 -55 -14 -30 -28 -73 -66 -195 -61 -198 -83 -260 -91 -260 -7 0
-198 195 -303 310 -159 174 -378 391 -413 409 -99 49 -307 73 -645 74 -202 0
-227 2 -222 16 27 90 35 160 29 254 -14 222 -56 298 -209 374 -56 28 -119 40
-285 53 -203 16 -320 43 -412 95 -50 28 -151 131 -145 148 1 5 89 47 194 92
106 46 205 93 220 105 46 35 99 123 116 191 23 91 25 250 4 319 -34 114 -151
219 -312 281 -81 31 -107 38 -275 79 -52 13 -100 27 -105 31 -19 15 -257 57
-420 76 -127 14 -240 18 -545 18 -425 -1 -1163 -19 -1196 -30 -19 -6 -27 4
-69 77 -48 84 -86 139 -115 169 -8 9 -48 54 -89 100 -41 46 -134 143 -205 215
-72 72 -176 180 -231 240 -207 224 -294 295 -529 433 -449 264 -1011 451
-1671 556 -423 67 -965 94 -1155 58z m900 -267 c52 -10 124 -26 160 -36 36
-10 94 -21 130 -24 35 -4 89 -13 120 -21 53 -14 137 -31 265 -55 404 -76 514
-113 945 -323 124 -60 267 -144 328 -191 61 -48 345 -327 382 -376 14 -18 75
-81 135 -141 61 -59 119 -117 130 -129 11 -12 76 -83 145 -157 102 -109 137
-155 187 -246 35 -61 65 -127 68 -147 3 -19 14 -57 25 -85 10 -27 22 -68 26
-90 4 -22 16 -58 27 -79 28 -57 41 -293 27 -519 -6 -94 -15 -264 -20 -377 -14
-278 -13 -274 -74 -381 -30 -52 -57 -113 -61 -136 -4 -23 -20 -62 -37 -85 -63
-88 -350 -356 -493 -460 -27 -20 -66 -49 -85 -63 -75 -56 -331 -215 -346 -215
-2 0 -47 -21 -101 -46 -54 -25 -118 -54 -143 -65 -25 -11 -63 -28 -85 -39
-100 -47 -166 -71 -245 -91 -47 -12 -114 -32 -150 -44 -107 -38 -270 -84 -355
-100 -44 -9 -93 -20 -110 -25 -54 -18 -298 -58 -420 -70 -66 -6 -158 -17 -205
-25 -47 -7 -157 -16 -245 -20 -88 -3 -205 -12 -260 -20 -154 -21 -2495 -29
-2524 -8 -41 28 -51 65 -51 185 0 176 17 194 202 215 147 16 320 48 403 73 33
10 85 23 115 29 49 11 87 27 240 107 152 78 357 328 414 503 l25 76 2 1455 c2
800 3 1521 3 1602 1 141 0 149 -22 170 -17 17 -33 23 -65 22 -51 -2 -338 -97
-414 -137 -18 -9 -37 -17 -42 -17 -6 0 -35 -16 -65 -35 -30 -19 -59 -35 -63
-35 -14 0 -127 -62 -163 -90 -34 -26 -51 -36 -152 -86 -26 -13 -62 -36 -80
-52 -18 -16 -47 -36 -64 -45 -16 -8 -68 -53 -115 -99 -46 -46 -125 -122 -174
-170 -50 -48 -107 -108 -128 -135 -147 -186 -179 -228 -193 -256 -9 -18 -30
-47 -45 -65 -16 -18 -36 -48 -44 -68 -8 -19 -32 -60 -55 -91 -22 -31 -40 -61
-40 -66 0 -6 -15 -42 -34 -81 -32 -67 -81 -192 -132 -337 -30 -84 -78 -292
-101 -439 -27 -176 -25 -533 5 -750 12 -91 29 -194 37 -230 8 -36 17 -85 21
-110 3 -25 15 -74 25 -109 10 -35 19 -78 19 -97 0 -18 9 -57 19 -86 11 -29 29
-89 39 -133 11 -44 25 -98 30 -120 6 -22 22 -71 37 -110 15 -38 31 -89 36
-112 4 -24 15 -56 23 -72 15 -29 35 -80 61 -156 7 -22 30 -78 49 -125 20 -46
36 -90 36 -98 0 -14 31 -91 54 -132 13 -24 85 -167 141 -280 41 -85 98 -186
116 -206 8 -11 35 -53 59 -94 23 -41 51 -86 61 -100 10 -14 30 -45 45 -70 15
-25 52 -75 83 -112 31 -36 81 -97 111 -135 30 -37 84 -95 120 -128 35 -33 125
-118 200 -190 371 -356 562 -502 860 -658 41 -21 79 -43 85 -48 5 -5 19 -9 32
-9 13 0 55 -16 94 -36 108 -55 241 -72 626 -81 364 -7 443 1 681 74 78 23 149
43 157 43 8 0 55 18 104 40 49 22 99 40 111 40 12 0 52 14 90 30 38 17 95 39
127 49 102 34 146 52 172 70 14 10 42 24 61 31 19 8 70 31 112 52 42 21 80 38
83 38 4 0 41 16 83 36 43 20 115 54 162 76 47 22 108 51 135 63 54 25 278 128
391 181 39 18 84 36 99 40 16 4 80 32 143 62 64 30 134 57 156 60 23 2 61 15
86 27 25 11 81 32 125 44 44 13 96 30 115 37 19 8 64 18 100 24 36 5 93 14
128 20 116 20 409 28 607 18 180 -9 197 -12 315 -50 69 -21 163 -54 210 -73
47 -19 99 -37 115 -41 49 -11 167 -75 210 -114 28 -25 75 -48 160 -79 66 -24
136 -57 157 -72 20 -16 56 -36 80 -45 23 -8 72 -32 108 -54 109 -64 232 -127
292 -150 36 -13 69 -34 89 -57 30 -35 31 -39 25 -96 -11 -108 -64 -185 -153
-222 -83 -35 -344 -1 -434 56 -25 16 -49 29 -52 29 -12 0 -277 131 -282 139
-2 5 -28 20 -57 35 -29 15 -84 47 -123 72 -38 24 -83 51 -100 59 -16 8 -39 20
-50 27 -80 52 -134 82 -167 94 -22 7 -51 20 -66 29 -15 8 -108 31 -207 51
-143 29 -218 38 -365 45 -650 32 -583 31 -656 5 -37 -14 -70 -29 -73 -34 -10
-15 -80 -48 -176 -81 -49 -18 -116 -45 -148 -62 -32 -16 -64 -29 -73 -29 -8 0
-47 -15 -87 -34 -40 -19 -92 -39 -117 -46 -25 -6 -64 -20 -87 -31 -24 -10 -45
-19 -47 -19 -3 0 -42 -18 -88 -39 -122 -57 -172 -78 -207 -86 -40 -9 -154 -77
-204 -122 -45 -41 -112 -72 -232 -109 -49 -15 -103 -33 -120 -40 -16 -7 -70
-25 -120 -39 -49 -14 -115 -34 -145 -44 -30 -10 -86 -29 -125 -41 -102 -33
-187 -69 -210 -89 -20 -18 -91 -42 -175 -60 -103 -22 -236 -32 -447 -33 -215
-1 -225 0 -247 21 -18 17 -35 21 -92 21 -66 0 -130 11 -296 51 -43 11 -88 19
-102 19 -69 0 -351 111 -571 226 -11 6 -46 24 -78 39 -33 16 -102 57 -155 93
-54 35 -108 68 -120 73 -24 9 -77 49 -164 124 -103 87 -132 111 -167 135 -51
36 -126 105 -271 250 -220 220 -404 440 -540 645 -40 61 -85 128 -100 150 -85
125 -221 372 -295 535 -31 69 -65 141 -75 160 -10 19 -25 62 -33 96 -9 33 -27
85 -40 115 -27 59 -49 127 -66 204 -7 28 -18 73 -26 100 -27 92 -46 169 -64
251 -10 44 -21 87 -26 94 -5 8 -12 75 -16 149 -4 75 -15 188 -24 252 -14 98
-16 176 -13 495 5 403 17 550 64 796 13 69 24 136 24 148 0 12 6 34 14 48 7
15 23 61 35 102 13 41 31 98 41 125 39 106 71 191 84 220 7 17 17 45 20 62 7
30 164 348 202 410 94 149 173 267 257 382 18 24 37 51 42 61 23 38 109 150
115 150 4 0 76 68 161 151 85 83 170 162 189 175 19 14 69 53 110 89 41 36 79
65 83 65 5 0 41 22 80 49 40 28 89 57 110 66 20 8 62 31 92 50 30 20 67 40 82
45 16 6 37 15 48 20 43 19 265 90 350 111 84 21 113 23 452 24 199 0 366 4
370 9 4 4 195 6 423 4 348 -3 430 -7 510 -22z m7110 -491 c69 -9 143 -22 165
-29 22 -8 62 -19 90 -26 27 -6 54 -15 60 -19 5 -5 45 -20 88 -35 43 -15 100
-37 125 -50 26 -13 81 -36 122 -52 41 -16 110 -48 153 -71 42 -24 83 -43 90
-43 24 0 189 -122 200 -149 16 -37 75 -128 87 -136 5 -3 10 -21 10 -40 0 -27
-9 -41 -51 -79 -43 -39 -57 -46 -93 -46 -22 0 -104 -9 -181 -20 -77 -10 -185
-24 -240 -30 -133 -14 -267 -38 -338 -61 -31 -11 -63 -19 -71 -19 -7 0 -25 -9
-39 -20 -14 -11 -32 -20 -41 -20 -9 0 -47 -30 -84 -68 -59 -60 -73 -82 -125
-197 -68 -154 -76 -206 -58 -388 16 -161 15 -156 59 -205 28 -32 58 -50 118
-74 77 -31 82 -31 204 -27 69 2 402 3 740 3 593 -2 621 -3 782 -26 190 -27
192 -27 256 44 29 32 42 59 59 125 13 53 38 114 67 163 25 44 46 88 46 97 0
48 37 158 63 186 27 29 30 30 95 24 37 -4 168 -12 292 -18 259 -13 1308 -6
1460 10 l95 10 28 -30 27 -29 0 -258 c0 -271 -9 -353 -48 -428 -26 -51 -41
-63 -142 -109 -47 -21 -106 -51 -131 -67 -25 -15 -52 -28 -58 -28 -18 0 -138
-57 -145 -68 -3 -6 -20 -14 -38 -17 -17 -4 -45 -15 -62 -24 -62 -35 -60 -15
-68 -721 -4 -355 -12 -746 -18 -870 -31 -706 -34 -863 -20 -1182 8 -172 13
-367 11 -433 -2 -91 2 -145 18 -222 19 -93 21 -136 21 -520 1 -230 5 -593 10
-808 6 -214 12 -880 15 -1480 3 -599 7 -1104 10 -1121 7 -39 44 -90 95 -129
21 -16 62 -49 92 -72 66 -51 157 -97 226 -113 146 -34 379 5 499 84 21 14 58
30 83 36 110 29 236 124 282 213 11 22 48 70 83 107 34 36 70 82 79 102 10 20
35 50 57 67 21 18 39 37 39 44 0 7 27 44 60 82 65 76 129 198 150 285 7 30 21
72 31 92 17 34 19 64 19 322 0 296 -8 372 -41 415 -11 13 -19 33 -19 45 0 25
-62 151 -90 183 -10 12 -40 62 -65 110 -26 48 -57 99 -69 113 -34 38 -62 89
-81 150 -10 30 -32 71 -50 90 -44 47 -52 75 -26 96 24 21 161 66 180 59 8 -3
59 -10 115 -15 192 -19 253 -39 359 -117 32 -23 84 -57 115 -75 70 -40 256
-226 334 -334 56 -77 110 -205 138 -326 5 -23 10 -171 10 -328 l0 -285 -35
-50 c-20 -28 -137 -152 -260 -277 -124 -125 -225 -232 -225 -237 0 -6 -20 -25
-44 -43 -24 -19 -72 -67 -107 -108 -35 -41 -70 -79 -77 -84 -8 -4 -60 -56
-115 -114 -155 -162 -376 -375 -406 -391 -14 -7 -49 -33 -76 -56 -28 -23 -91
-63 -140 -88 -50 -25 -110 -60 -135 -76 -25 -17 -50 -31 -56 -31 -6 0 -17 -7
-24 -15 -22 -26 -295 -154 -406 -190 -104 -33 -134 -41 -284 -69 -134 -26
-434 -29 -960 -10 -272 10 -572 17 -666 15 l-170 -3 -31 26 c-42 36 -56 101
-48 231 11 169 34 257 72 269 10 3 56 10 102 15 l84 9 79 79 c78 77 96 102
168 238 34 63 110 245 139 335 16 49 48 218 60 320 7 54 13 1314 17 3465 6
3585 6 3668 -6 3700 -14 34 -50 65 -76 65 -40 0 -84 -36 -84 -69 0 -42 -37
-207 -54 -240 -9 -16 -19 -48 -22 -72 -6 -33 -20 -56 -61 -101 -50 -54 -60
-78 -54 -126 1 -7 -7 -27 -18 -45 -11 -18 -36 -81 -56 -142 -20 -60 -40 -114
-46 -119 -5 -6 -9 -26 -9 -46 0 -21 -10 -50 -24 -71 -45 -66 -96 -194 -96
-243 0 -11 -11 -34 -24 -51 -14 -18 -28 -45 -32 -61 -4 -16 -22 -62 -41 -102
-18 -40 -33 -82 -33 -93 0 -10 -9 -36 -20 -56 -11 -21 -20 -46 -20 -57 0 -10
-13 -34 -30 -53 -16 -18 -30 -40 -30 -49 0 -8 -9 -32 -20 -54 -11 -22 -20 -51
-20 -65 0 -14 -9 -43 -20 -65 -11 -22 -20 -45 -20 -53 0 -8 -14 -42 -31 -77
-28 -56 -48 -104 -89 -220 -7 -19 -30 -70 -51 -113 -22 -43 -39 -83 -39 -88 0
-6 -15 -42 -34 -82 -18 -40 -37 -83 -41 -97 -4 -14 -26 -70 -50 -125 -23 -55
-70 -181 -105 -280 -34 -99 -69 -197 -78 -218 -17 -43 -55 -77 -83 -77 -10 0
-91 64 -179 143 -89 78 -189 164 -223 191 -34 27 -83 68 -109 92 -26 24 -51
44 -56 44 -5 0 -35 22 -68 50 -32 27 -86 71 -119 97 -32 26 -98 87 -145 134
-47 48 -121 119 -165 159 -99 89 -262 241 -362 337 -82 79 -104 91 -137 73
-63 -33 -69 -99 -56 -600 7 -247 11 -884 9 -1575 -1 -638 -1 -1193 -1 -1233 2
-67 4 -75 35 -108 l33 -36 142 -13 c78 -8 158 -19 179 -24 21 -6 74 -13 118
-16 106 -8 159 -22 186 -51 l21 -23 0 -526 c0 -610 6 -571 -92 -561 -69 8
-206 30 -380 61 -74 14 -173 31 -220 39 -47 8 -150 26 -230 40 -257 45 -512
55 -905 36 -237 -12 -450 -42 -511 -71 -22 -11 -58 -19 -80 -19 -47 1 -121
-12 -188 -34 -27 -9 -70 -16 -96 -16 -53 0 -162 -35 -261 -85 -38 -19 -74 -35
-81 -35 -7 0 -29 -8 -48 -19 -42 -22 -182 -71 -204 -71 -8 0 -57 -20 -108 -45
-112 -54 -170 -60 -215 -21 l-28 24 1 327 1 326 35 67 35 67 134 6 c158 7 479
50 597 79 94 23 144 25 174 9 18 -10 25 -8 39 10 9 11 24 21 33 21 42 0 166
38 166 50 0 12 126 109 155 120 14 5 25 14 25 19 0 5 21 21 48 37 26 15 72 49
102 76 30 27 62 54 70 62 8 7 45 44 82 83 37 39 75 73 83 77 8 3 20 18 26 33
6 16 36 80 68 143 59 117 134 334 147 425 3 28 11 59 16 69 6 10 19 85 29 165
10 80 23 173 29 206 39 233 69 1879 36 2001 -7 28 -32 82 -55 120 -22 38 -44
85 -47 104 -4 19 -13 47 -20 61 -11 22 -78 76 -143 114 -9 6 -35 24 -56 41
-22 17 -58 41 -80 54 -22 14 -76 53 -122 87 -45 35 -85 63 -89 63 -18 0 -117
97 -136 133 -26 52 -35 155 -16 180 31 41 67 44 526 39 267 -2 513 0 632 7
584 35 910 32 970 -7 15 -9 100 -93 190 -187 90 -93 226 -233 303 -309 76 -77
163 -170 193 -208 30 -37 65 -73 77 -79 12 -7 50 -38 85 -70 68 -64 101 -78
136 -60 26 14 86 127 86 162 0 13 13 60 29 104 64 175 80 224 111 325 34 112
59 181 95 270 13 30 31 80 41 110 9 30 32 89 49 130 18 41 38 99 44 129 6 30
16 59 20 65 5 6 14 31 21 56 6 25 22 61 34 80 64 99 111 232 121 340 7 75 77
222 138 287 44 49 4 207 -64 247 -59 35 -201 41 -879 38 -355 -2 -681 -7 -725
-11 -181 -20 -343 2 -518 68 -141 53 -218 110 -315 232 -85 106 -102 188 -102
481 0 257 3 267 84 327 31 23 56 46 56 51 0 11 78 70 194 147 52 35 109 63
170 82 108 35 446 127 496 135 20 3 78 27 129 54 105 53 119 72 120 165 1 47
1 48 -45 67 -25 11 -62 20 -83 20 -24 0 -49 9 -72 26 -30 22 -42 25 -109 23
-41 -1 -115 3 -165 8 -147 18 -741 0 -930 -27 -38 -5 -108 -14 -154 -20 -47
-6 -94 -16 -105 -23 -20 -11 -103 -23 -331 -47 -55 -6 -122 -17 -150 -25 -27
-8 -86 -17 -130 -20 -44 -3 -114 -12 -155 -20 -41 -8 -131 -21 -200 -30 -197
-26 -361 -55 -384 -68 -12 -6 -50 -12 -86 -13 -112 -1 -299 -23 -338 -40 -20
-9 -73 -20 -117 -24 -44 -4 -133 -14 -198 -21 -113 -13 -121 -12 -155 6 -116
62 36 134 318 151 68 5 117 13 140 24 19 10 67 21 105 25 39 4 101 13 138 21
38 8 87 14 110 14 23 0 70 9 104 20 34 10 97 22 140 25 43 4 116 16 163 26 46
11 141 29 210 40 69 11 150 26 180 34 30 8 93 17 140 20 47 4 108 13 135 20
28 8 80 16 116 19 36 3 88 14 115 24 27 11 90 24 139 30 110 13 246 39 300 57
57 19 650 12 825 -10z m-8878 -1727 l-3 -1463 -23 -45 c-83 -164 -177 -273
-277 -323 -30 -15 -73 -38 -96 -51 -67 -38 -441 -126 -534 -126 -80 0 -242
-43 -307 -82 -66 -40 -114 -112 -132 -198 -7 -33 -17 -63 -21 -66 -5 -2 -15
21 -24 53 -9 32 -26 80 -37 108 -11 27 -33 99 -49 160 -15 60 -37 142 -48 180
-32 117 -109 445 -125 535 -49 271 -48 558 0 850 33 200 166 540 289 743 68
113 172 267 190 282 7 6 33 40 59 76 41 59 105 125 344 357 36 34 68 62 73 62
4 0 30 18 57 39 28 22 65 47 84 56 71 34 114 58 148 84 19 15 46 32 60 39 14
7 50 26 80 43 67 39 283 149 290 149 3 0 4 -658 2 -1462z m6658 402 c133 -9
157 -14 295 -58 83 -27 186 -57 230 -66 44 -9 112 -28 150 -42 39 -14 86 -28
105 -31 42 -7 77 -28 92 -57 14 -25 12 -163 -4 -223 -12 -50 -43 -78 -102 -94
-22 -6 -76 -28 -120 -50 -49 -24 -114 -46 -173 -58 -120 -25 -138 -37 -156
-103 -36 -127 -29 -188 27 -255 18 -21 40 -52 49 -69 22 -42 145 -156 192
-178 22 -10 51 -28 65 -41 48 -43 309 -95 573 -114 97 -7 111 -10 133 -33 24
-23 26 -33 31 -147 3 -83 1 -132 -7 -151 -24 -57 -23 -57 -627 -56 -543 1
-552 1 -580 22 -70 52 -119 156 -152 324 -9 46 -54 348 -76 510 -14 105 -29
159 -49 185 l-22 28 -367 1 -367 1 -24 -25 -25 -25 11 -470 c8 -359 8 -510 -1
-640 -13 -183 -6 -234 36 -308 23 -39 154 -141 203 -158 53 -18 106 -64 123
-108 11 -27 17 -79 18 -172 3 -147 -4 -173 -49 -191 -18 -7 -215 -11 -567 -13
-584 -2 -590 -2 -614 51 -15 34 -13 185 3 262 17 76 39 103 111 130 116 45
216 128 239 200 13 40 15 161 18 807 2 810 2 822 -46 875 -12 14 -34 44 -49
67 -23 37 -37 46 -114 75 -51 19 -101 46 -121 65 l-34 33 4 103 c4 117 18 150
71 172 24 9 165 14 562 19 291 4 532 9 534 12 8 8 425 4 571 -6z m16037 -894
c90 -45 309 -122 384 -136 25 -4 63 -16 85 -25 45 -19 132 -46 219 -68 33 -8
74 -20 90 -26 64 -23 223 -73 280 -87 33 -8 92 -25 130 -39 39 -13 104 -33
145 -45 126 -35 273 -81 320 -100 42 -18 191 -62 272 -81 20 -5 58 -20 84 -34
30 -16 55 -23 70 -19 23 6 100 -15 159 -43 17 -7 59 -18 94 -23 34 -5 80 -18
102 -29 22 -12 49 -21 61 -21 59 0 312 -93 408 -150 44 -25 103 -50 122 -50
21 0 28 -3 211 -89 59 -28 113 -51 119 -51 7 0 42 -18 80 -40 37 -22 101 -59
141 -82 138 -81 234 -151 372 -272 104 -92 122 -111 131 -138 4 -13 24 -43 45
-69 22 -25 39 -50 39 -56 0 -6 7 -16 15 -23 27 -22 75 -120 75 -153 0 -18 9
-66 21 -107 25 -89 22 -170 -11 -330 -19 -91 -30 -119 -87 -215 -100 -170 -98
-168 -266 -341 -126 -128 -165 -163 -190 -167 -40 -6 -234 56 -332 105 -88 44
-382 196 -455 235 -30 17 -72 35 -92 42 -21 7 -49 28 -65 48 -67 84 -101 111
-149 119 -148 22 -456 -43 -794 -167 -47 -17 -99 -34 -116 -39 -17 -4 -44 -14
-60 -23 -45 -24 -264 -107 -283 -107 -9 0 -26 -6 -37 -14 -27 -19 -259 -96
-290 -96 -14 0 -37 -6 -52 -13 -54 -27 -219 -39 -492 -35 -255 4 -269 5 -355
31 -49 15 -117 40 -150 56 -33 16 -68 32 -77 35 -10 3 -51 27 -90 54 -76 51
-348 309 -348 330 0 6 -40 60 -90 119 -67 79 -90 114 -90 135 0 31 -90 218
-115 238 -12 10 -15 36 -15 115 0 72 -6 122 -19 166 -14 47 -20 106 -24 224
-3 115 -9 173 -21 205 -10 25 -21 74 -26 109 -5 39 -15 71 -27 82 -38 38 -253
75 -291 50 -11 -6 -13 -125 -12 -617 0 -574 1 -610 19 -634 17 -24 49 -38 206
-91 99 -33 130 -89 81 -146 l-24 -28 -209 0 c-114 0 -253 -4 -309 -9 -98 -9
-103 -8 -157 18 l-57 26 -60 -25 c-52 -22 -74 -25 -172 -25 -176 0 -333 21
-377 49 -21 14 -17 130 10 243 16 68 22 127 23 218 1 179 -23 243 -99 260 -61
14 -450 12 -520 -4 -98 -21 -101 -24 -115 -119 -15 -97 -9 -279 10 -319 15
-32 88 -69 192 -98 85 -23 112 -40 133 -81 13 -24 14 -37 6 -62 -20 -60 -27
-61 -357 -68 -166 -3 -306 -9 -313 -13 -18 -11 -91 14 -117 40 -23 22 -24 29
-18 91 8 76 20 107 59 143 36 34 88 142 104 215 7 33 22 76 33 95 26 43 57
159 88 320 4 25 13 70 19 100 11 52 67 351 75 397 2 11 8 32 12 45 4 12 7 51
5 86 -1 34 3 96 10 136 15 98 4 129 -66 190 -67 58 -71 83 -18 123 l36 28 571
-3 c841 -5 841 -5 971 -1 168 6 643 -8 745 -21 202 -26 275 -54 305 -117 13
-27 14 -48 7 -123 -11 -103 -23 -122 -102 -168 -25 -14 -56 -36 -70 -48 l-25
-23 2 -233 c1 -222 8 -306 31 -373 5 -16 20 -61 32 -100 13 -38 33 -84 46
-102 13 -17 24 -34 24 -37 0 -21 81 -133 135 -185 36 -35 65 -67 65 -72 0 -4
16 -17 36 -29 19 -12 58 -42 87 -67 50 -43 173 -113 199 -113 7 0 26 -7 41
-15 15 -8 42 -19 60 -24 18 -5 59 -19 92 -31 58 -22 71 -22 455 -21 217 1 413
4 435 7 70 9 329 72 535 129 52 15 114 31 137 36 24 4 55 15 70 22 30 15 146
51 203 62 19 4 51 15 70 25 19 10 65 23 102 29 36 6 99 24 140 40 40 16 102
32 137 36 36 3 81 14 100 23 49 24 193 23 219 -1 10 -9 28 -17 39 -17 23 0 83
-62 83 -85 0 -7 17 -34 38 -59 20 -24 48 -61 62 -82 14 -20 36 -46 49 -58 14
-12 57 -52 96 -91 62 -61 82 -74 151 -98 181 -64 258 -88 323 -99 64 -11 71
-10 112 12 24 12 69 35 100 50 67 34 67 34 124 144 37 73 45 96 45 143 0 97
-80 299 -191 479 -22 37 -51 90 -64 118 -62 132 -113 194 -205 251 -30 18 -77
38 -105 43 -57 11 -89 22 -195 64 -41 17 -97 37 -125 45 -27 8 -63 21 -80 28
-16 7 -48 18 -70 24 -22 5 -78 24 -125 41 -47 17 -96 35 -110 40 -14 5 -56 21
-95 36 -38 14 -115 42 -170 61 -55 19 -119 43 -143 54 -23 10 -73 29 -110 40
-37 11 -92 30 -122 41 -115 43 -218 80 -300 108 -47 17 -94 34 -105 39 -11 6
-51 19 -90 31 -38 11 -79 25 -90 30 -11 5 -63 23 -115 39 -109 34 -213 84
-262 127 -19 17 -47 35 -64 41 -74 28 -170 57 -300 92 -77 21 -163 49 -190 61
-43 20 -174 57 -367 105 -32 8 -71 22 -86 29 -15 8 -52 18 -82 22 -62 7 -125
43 -139 80 -16 41 13 143 50 177 35 31 47 33 87 13z m-4792 -572 c40 -19 53
-51 61 -149 5 -63 4 -74 -18 -105 -21 -31 -29 -35 -76 -38 -36 -2 -66 3 -98
17 -26 12 -58 21 -73 21 -14 0 -51 7 -81 15 -94 25 -127 21 -171 -24 -54 -54
-54 -94 1 -153 23 -24 74 -92 115 -153 74 -109 111 -158 200 -265 64 -77 205
-271 205 -282 0 -5 18 -36 41 -70 22 -34 43 -75 45 -92 3 -17 15 -53 26 -80
11 -28 24 -75 28 -105 11 -82 -6 -222 -35 -286 -14 -29 -25 -63 -25 -75 0 -31
-45 -104 -88 -141 -20 -18 -68 -47 -106 -65 l-71 -33 -312 -3 c-302 -2 -313
-2 -340 18 -43 32 -53 77 -46 199 7 114 24 155 64 155 25 0 86 -31 161 -82
134 -91 246 -109 418 -67 69 17 91 27 118 55 32 33 32 35 32 130 0 87 -3 103
-34 172 -29 67 -146 257 -204 332 -10 14 -34 52 -52 85 -18 33 -43 74 -56 92
-13 17 -36 53 -50 80 -100 179 -135 239 -181 308 -29 43 -53 85 -53 94 0 9
-24 47 -52 83 -93 118 -118 166 -118 225 0 49 2 53 48 93 91 81 117 88 367
105 231 16 362 12 410 -11z m-3201 -30 c46 -12 83 -14 148 -9 69 5 93 3 117
-9 57 -30 51 -92 -22 -200 -49 -71 -51 -109 -52 -868 l0 -706 25 -27 c24 -26
27 -27 110 -20 204 15 351 39 500 81 72 20 90 22 120 13 59 -20 119 -67 120
-94 0 -21 -70 -107 -112 -137 -86 -63 -125 -71 -308 -70 -358 3 -709 14 -785
25 -46 6 -214 11 -397 12 -306 0 -318 1 -338 21 -24 24 -27 57 -12 179 14 113
25 469 16 512 -4 18 -17 44 -30 58 l-23 25 -259 0 c-326 0 -297 20 -311 -215
-6 -93 -16 -225 -22 -292 -6 -67 -8 -131 -4 -143 11 -35 -3 -103 -28 -134
l-23 -29 -170 2 c-176 2 -250 13 -271 39 -30 37 -9 188 29 211 13 8 53 44 90
80 48 49 69 77 76 106 34 142 42 193 42 272 0 49 9 151 21 228 40 273 37 759
-6 896 -8 26 -15 67 -15 92 0 37 5 49 27 66 37 30 69 36 96 19 18 -12 68 -13
307 -7 157 4 340 8 408 8 119 1 124 0 149 -25 25 -25 26 -27 19 -130 -6 -83
-3 -130 13 -227 11 -67 24 -157 30 -200 6 -43 18 -92 27 -109 11 -22 19 -75
24 -172 5 -78 12 -154 18 -171 5 -16 19 -106 31 -200 41 -325 38 -312 101
-435 36 -70 69 -90 173 -101 l82 -10 56 40 c30 22 75 45 99 51 28 7 59 27 83
51 38 38 39 39 33 96 -3 32 -7 74 -7 93 0 19 -5 262 -10 540 -11 606 -13 637
-37 670 -10 13 -45 38 -78 55 -89 46 -98 98 -28 175 42 46 62 49 158 24z
m3731 -5 c23 -6 175 -12 351 -14 260 -2 316 -6 342 -19 39 -20 72 -62 72 -93
0 -13 7 -40 15 -60 20 -47 20 -47 -16 -88 -37 -42 -63 -44 -128 -11 -25 13
-57 29 -71 35 -14 7 -38 19 -53 27 -36 20 -72 11 -93 -21 -14 -22 -18 -80 -25
-413 -12 -557 -10 -929 4 -977 17 -56 75 -97 168 -119 41 -10 82 -25 91 -33
17 -15 58 -135 58 -170 0 -21 -33 -56 -62 -66 -10 -3 -186 -7 -391 -8 -276 -1
-380 2 -396 11 -13 6 -31 31 -42 55 -15 34 -17 52 -10 90 11 61 34 82 100 95
56 10 65 15 175 89 65 45 90 79 86 123 -1 13 -4 309 -8 659 -7 607 -8 638 -26
658 -22 24 -60 27 -96 6 -14 -8 -42 -14 -63 -15 -21 0 -50 -6 -65 -14 -35 -18
-106 -29 -131 -21 -31 9 -43 52 -31 113 13 69 21 82 78 131 74 61 98 68 167
50z m-1715 -34 c67 -59 66 -201 -1 -181 -33 9 -421 20 -452 12 -14 -3 -28 -14
-32 -23 -3 -10 -6 -110 -5 -223 0 -113 -4 -272 -10 -355 -11 -163 -5 -206 33
-227 14 -7 87 -10 222 -9 177 2 204 4 238 21 67 35 105 23 126 -39 28 -86 4
-188 -53 -218 -47 -25 -146 -20 -236 12 -122 44 -242 46 -292 5 -22 -18 -23
-22 -23 -217 -1 -224 10 -292 49 -332 25 -25 32 -26 149 -29 71 -2 137 1 159
7 71 22 128 90 128 155 0 43 21 75 57 87 51 17 82 -1 131 -76 37 -57 42 -72
42 -121 0 -72 -20 -113 -84 -171 -91 -82 -96 -83 -381 -77 -138 3 -324 6 -415
8 -149 2 -169 4 -207 24 -50 26 -62 45 -70 112 -7 59 2 73 65 103 40 18 49 30
81 96 l36 76 -2 169 c-1 134 -4 172 -16 184 -9 8 -46 17 -90 22 -78 7 -89 11
-124 43 -32 28 -31 90 0 121 19 19 37 24 107 29 79 5 87 8 113 37 l28 31 -3
369 c-3 339 -4 371 -21 387 -14 14 -40 19 -130 23 -82 4 -123 11 -152 25 -74
36 -82 113 -17 146 29 15 88 17 531 15 484 -1 500 -2 521 -21z m-3983 -561 c6
-210 -4 -345 -42 -569 -13 -77 -26 -158 -28 -180 -3 -22 -2 10 0 70 2 61 11
178 19 260 9 83 18 272 22 420 7 308 19 307 29 -1z m4209 123 c16 -23 48 -76
71 -117 22 -41 65 -111 95 -155 29 -44 59 -93 67 -110 7 -16 75 -122 150 -235
136 -201 224 -348 268 -442 l22 -48 -23 0 c-33 0 -84 19 -136 52 -164 101
-281 140 -364 121 -58 -13 -70 -2 -46 41 10 17 28 71 39 119 62 264 -29 464
-231 507 -55 12 -73 12 -148 -4 -47 -9 -89 -22 -94 -27 -6 -5 -36 -9 -68 -9
l-58 0 0 144 c0 79 3 151 6 160 8 22 78 21 175 -2 72 -18 79 -18 138 -1 35 9
70 24 79 33 9 9 19 16 22 16 3 -1 19 -20 36 -43z m1101 -38 c14 -14 150 -49
193 -49 19 0 50 4 68 9 l32 10 -1 -362 c0 -260 -3 -355 -11 -337 -5 14 -14 32
-18 41 -5 9 -14 36 -20 60 -22 80 -127 240 -318 483 -51 65 -91 120 -89 122 5
5 118 32 138 33 8 1 20 -4 26 -10z m1313 -6 c0 -113 -31 -298 -76 -453 -9 -30
-33 -118 -53 -195 -20 -77 -41 -146 -45 -153 -5 -8 -14 -35 -22 -60 -40 -140
-59 -168 -86 -119 -21 39 -12 888 11 925 4 6 19 8 41 3 43 -9 145 17 186 47
35 26 44 27 44 5z m809 -1035 c-4 -29 -8 -61 -8 -72 -1 -17 -2 -17 -23 -2 -44
31 -83 49 -143 65 -39 11 -61 22 -63 33 -4 19 23 23 164 26 l80 2 -7 -52z"/>
<path d="M3432 14519 c-11 -4 -29 -22 -40 -41 -20 -33 -20 -37 -11 -588 12
-742 10 -2157 -4 -2777 -12 -542 -9 -586 38 -641 21 -24 29 -27 87 -26 188 3
580 25 693 38 72 9 153 16 181 16 66 0 269 35 356 60 36 11 86 20 110 20 24 0
59 8 78 19 19 10 58 21 85 25 49 7 160 42 181 57 5 5 35 15 65 23 91 25 355
123 515 191 83 36 154 65 159 65 14 0 193 89 199 99 4 6 50 43 104 83 120 90
277 241 341 328 79 106 131 221 157 345 23 104 24 130 24 469 l0 359 -39 92
c-25 58 -42 115 -46 156 -9 90 -31 152 -72 206 -34 45 -56 78 -89 138 -9 17
-37 52 -61 79 -24 27 -69 88 -101 135 -73 111 -204 293 -255 354 -68 82 -174
154 -322 219 -113 49 -317 149 -355 173 -19 13 -66 33 -105 45 -38 13 -75 26
-80 30 -6 5 -44 17 -85 28 -41 11 -111 30 -155 42 -44 12 -102 27 -130 32 -27
5 -79 16 -115 24 -36 9 -81 18 -100 20 -267 35 -358 48 -425 59 -44 8 -179 17
-300 21 -121 4 -275 12 -342 18 -67 6 -131 9 -141 5z m643 -285 c206 -16 484
-53 635 -85 107 -22 342 -85 380 -101 14 -5 57 -21 95 -35 39 -14 169 -74 290
-134 121 -59 246 -121 278 -136 72 -34 138 -98 219 -211 34 -48 81 -110 103
-137 45 -56 170 -236 229 -329 21 -33 52 -77 67 -98 22 -27 33 -57 44 -125 21
-119 32 -157 57 -200 20 -33 23 -58 31 -252 10 -261 4 -475 -18 -556 -34 -127
-80 -201 -210 -331 -146 -147 -257 -223 -485 -333 -294 -141 -497 -211 -945
-326 -71 -18 -284 -61 -390 -79 -174 -28 -799 -74 -834 -61 -12 5 -13 37 -8
198 3 105 13 278 22 382 14 170 15 302 6 1235 -6 575 -13 1202 -17 1393 l-6
348 134 -6 c73 -4 219 -13 323 -21z"/>
<path d="M8333 12826 c-47 -21 -66 -67 -71 -168 -4 -87 -4 -87 27 -118 l31
-32 528 6 c566 5 556 4 659 59 111 59 74 186 -66 226 -60 18 -112 20 -531 25
-256 3 -483 8 -505 11 -24 3 -52 0 -72 -9z"/>
<path d="M23375 11410 c-167 -11 -264 -38 -280 -77 -13 -34 -21 -228 -13 -326
8 -98 85 -478 113 -558 8 -23 15 -51 15 -63 0 -21 18 -82 71 -246 41 -127 109
-250 173 -312 33 -31 64 -71 70 -89 21 -63 71 -64 90 -3 5 16 22 45 36 64 15
19 43 56 62 82 20 26 46 78 57 116 21 68 22 84 21 638 0 313 -4 585 -9 604
-20 86 -69 143 -145 165 -52 16 -81 16 -261 5z m159 -282 c10 -61 19 -662 11
-803 l-8 -140 -16 60 c-9 33 -21 66 -25 73 -4 8 -23 70 -42 140 -18 70 -49
177 -68 238 -19 62 -42 152 -50 200 -17 101 -24 229 -12 241 4 4 40 11 79 14
134 11 124 13 131 -23z"/>
<path d="M24076 11375 c-14 -13 -26 -31 -26 -39 0 -19 38 -46 67 -46 12 0 45
-9 73 -20 74 -29 216 -29 254 1 34 26 32 64 -4 90 -26 19 -168 39 -278 39 -49
0 -64 -4 -86 -25z"/>
<path d="M22542 11381 c-92 -7 -108 -23 -117 -119 -4 -37 -11 -86 -16 -110
-26 -119 -62 -522 -51 -564 20 -80 59 -91 288 -84 179 5 195 9 229 46 18 20
19 35 17 243 -2 122 -6 296 -10 386 -7 161 -8 164 -35 186 -24 22 -35 24 -129
23 -57 -1 -136 -4 -176 -7z m108 -466 c0 -146 -1 -155 -19 -155 -17 0 -19 6
-15 58 2 31 7 101 10 155 3 53 10 97 15 97 5 0 9 -69 9 -155z"/>
<path d="M15943 11376 c-37 -17 -58 -47 -68 -96 -4 -19 -15 -51 -25 -70 -57
-113 -101 -499 -69 -613 18 -65 32 -69 267 -70 299 -2 300 -1 288 211 -4 70
-12 199 -17 287 -8 158 -20 260 -33 303 -14 41 -60 56 -191 59 -88 2 -128 -1
-152 -11z m137 -451 l0 -135 -30 0 c-25 0 -30 4 -30 24 0 43 46 246 55 246 3
0 5 -61 5 -135z"/>
</g>
</svg>
